<svg width="71" height="68" viewBox="0 0 71 68" fill="none" xmlns="http://www.w3.org/2000/svg">
<path d="M14.8574 11.4107C19.3347 6.91644 25.0386 3.85617 31.2478 2.61679C37.4571 1.3774 43.893 2.01454 49.7416 4.44767C55.5903 6.88079 60.5892 11.0006 64.1061 16.2863C67.6231 21.5719 69.5003 27.786 69.5003 34.1428C69.5003 40.4996 67.6231 46.7137 64.1061 51.9993C60.5892 57.2849 55.5903 61.4048 49.7416 63.8379C43.893 66.271 37.4571 66.9082 31.2478 65.6688C25.0386 64.4294 19.3347 61.3691 14.8574 56.8749" stroke="#185F7D" stroke-width="3" stroke-linecap="round" stroke-linejoin="round"/>
<path d="M37 41L44 34L37 27" stroke="#185F7D" stroke-width="3" stroke-linecap="round" stroke-linejoin="round"/>
<path d="M43.7856 33.8572L1.99993 33.8572" stroke="#185F7D" stroke-width="3" stroke-linecap="round" stroke-linejoin="round"/>
</svg>
